<svg xmlns="http://www.w3.org/2000/svg" xmlns:xlink="http://www.w3.org/1999/xlink" version="1.1" x="0px" y="0px" viewBox="0 0 100 100" enable-background="new 0 0 100 100" xml:space="preserve"><g><path fill-rule="evenodd" clip-rule="evenodd" d="M38.258,68.15c0.133-0.167,0.3-0.267,0.5-0.3c0.767-0.033,1.383-0.317,1.85-0.85   c0.5-0.6,0.816-1.183,0.95-1.75c0.1-0.633,0.067-1.217-0.1-1.75c-0.066-0.2-0.05-0.4,0.05-0.6c0.1-0.233,0.233-0.367,0.4-0.4   c0.233-0.066,0.45-0.066,0.65,0c0.2,0.133,0.333,0.3,0.4,0.5c0.233,0.8,0.284,1.633,0.15,2.5c-0.167,0.867-0.6,1.717-1.3,2.55   c-0.733,0.866-1.717,1.333-2.95,1.4c-0.233,0-0.417-0.067-0.55-0.2c-0.167-0.133-0.267-0.316-0.3-0.55   C38.008,68.5,38.091,68.317,38.258,68.15z M35.408,57.1h-0.05c-1.967,2.7-3.034,5-3.2,6.9v0.05c-0.133,1.8,0.3,3.3,1.3,4.5   c1,1.233,2.333,1.966,4,2.2c1.633,0.233,3.184-0.383,4.65-1.85c1.433-1.466,2.133-2.983,2.1-4.55c-0.1-1.7-0.95-3.867-2.55-6.5   c-1.267-2.067-2.317-4.333-3.15-6.8C37.841,53.083,36.808,55.1,35.408,57.1z M38.908,47.35c0.2,0.133,0.3,0.283,0.3,0.45   c0.8,3.433,2.05,6.517,3.75,9.25c1.8,2.966,2.733,5.383,2.8,7.25c0.133,1.966-0.733,3.866-2.6,5.7c-1.9,1.867-3.883,2.633-5.95,2.3   c-2.066-0.3-3.716-1.2-4.95-2.7v-0.05c-1.3-1.5-1.85-3.384-1.65-5.65c0.133-2.167,1.3-4.733,3.5-7.7v-0.05   c1.966-2.7,3.167-5.466,3.6-8.3c0.034-0.167,0.117-0.317,0.25-0.45c0.133-0.167,0.3-0.25,0.5-0.25   C38.625,47.15,38.775,47.217,38.908,47.35z M34.008,29.3c0.133,0.133,0.217,0.316,0.25,0.55c0,0.167-0.067,0.333-0.2,0.5   c-1.267,1.533-1.267,3.45,0,5.75c1.667,3,1.717,5.4,0.15,7.2c-0.133,0.167-0.283,0.267-0.45,0.3c-0.267,0-0.467-0.067-0.6-0.2   c-0.167-0.133-0.25-0.3-0.25-0.5c-0.067-0.233-0.017-0.433,0.15-0.6c1.067-1.367,0.95-3.184-0.35-5.45c-1.667-3-1.583-5.5,0.25-7.5   c0.1-0.167,0.25-0.25,0.45-0.25C33.675,29.1,33.875,29.167,34.008,29.3z M37.208,29.1c0.233,0,0.417,0.067,0.55,0.2   c0.167,0.133,0.25,0.316,0.25,0.55c0.033,0.167-0.017,0.333-0.15,0.5c-1.267,1.533-1.267,3.45,0,5.75c1.667,3,1.716,5.4,0.15,7.2   c-0.133,0.167-0.3,0.267-0.5,0.3c-0.233,0-0.434-0.067-0.6-0.2c-0.2-0.133-0.3-0.3-0.3-0.5c-0.034-0.233,0.033-0.433,0.2-0.6   c1.067-1.367,0.967-3.184-0.3-5.45c-1.7-3-1.633-5.5,0.2-7.5C36.841,29.184,37.008,29.1,37.208,29.1z M41.358,29.1   c0.2,0,0.383,0.067,0.55,0.2s0.25,0.316,0.25,0.55c0.033,0.167-0.033,0.333-0.2,0.5c-1.267,1.533-1.267,3.45,0,5.75   c1.7,3,1.767,5.4,0.2,7.2c-0.167,0.167-0.35,0.267-0.55,0.3c-0.2,0-0.4-0.067-0.6-0.2c-0.133-0.133-0.217-0.3-0.25-0.5   c0-0.233,0.066-0.433,0.2-0.6c1.034-1.367,0.934-3.184-0.3-5.45c-1.733-3-1.683-5.5,0.15-7.5   C40.941,29.184,41.125,29.1,41.358,29.1z M50.508,30.8c-0.167,0.133-0.333,0.2-0.5,0.2c-0.2,0.033-0.4-0.017-0.6-0.15l-10.9-8.9   l-30.55,24.9h3.95c0.2,0,0.383,0.083,0.55,0.25c0.167,0.167,0.25,0.35,0.25,0.55V67.8c0,2.733,0.517,4.933,1.55,6.6   c1.633,2.6,4.617,3.9,8.95,3.9h30.65c4.1-0.067,6.966-1.367,8.6-3.9c0.7-1.133,1.15-2.517,1.35-4.15l-10.8-9.55l10.95-8.1v-4.95   c0-0.2,0.1-0.383,0.3-0.55c0.133-0.167,0.3-0.25,0.5-0.25h4.35l-8.1-6.55c-0.1-0.1-0.167-0.2-0.2-0.3   c-0.033-0.066-0.05-0.167-0.05-0.3V27.35h-10.05v2.9C50.708,30.483,50.642,30.667,50.508,30.8z M62.058,26.1   c0.167,0.133,0.25,0.3,0.25,0.5v12.7l9.5,7.75c0.133,0.066,0.217,0.2,0.25,0.4c0.067,0.133,0.067,0.283,0,0.45   c-0.066,0.167-0.15,0.3-0.25,0.4c-0.167,0.066-0.333,0.1-0.5,0.1h-5.8v5.95c0.233,0.2,0.367,0.317,0.4,0.35v-0.05   c0.533,0.5,1.133,0.75,1.8,0.75c1.1-0.033,2.017-0.35,2.75-0.95c0.934-0.867,2.034-1.3,3.3-1.3c0.967-0.066,2.167,0.567,3.6,1.9   c1.1,0.933,2.333,1.4,3.7,1.4c1-0.034,2.05-0.483,3.15-1.35c1.4-1.2,2.634-1.783,3.7-1.75c1.1-0.033,2.4,0.483,3.9,1.55   c0.9,0.633,1.75,1.034,2.55,1.2c0.233,0.033,0.4,0.133,0.5,0.3c0.1,0.2,0.15,0.4,0.15,0.6c-0.067,0.233-0.184,0.4-0.35,0.5   c-0.2,0.133-0.383,0.184-0.55,0.15c-1.034-0.2-2.1-0.7-3.2-1.5c-1.167-0.833-2.167-1.25-3-1.25c-0.767,0.034-1.683,0.483-2.75,1.35   c-1.4,1.167-2.767,1.75-4.1,1.75c-1.733,0.067-3.3-0.55-4.7-1.85c-1.067-0.933-1.934-1.417-2.6-1.45c-0.867,0-1.617,0.3-2.25,0.9   h-0.05c-0.933,0.9-2.167,1.35-3.7,1.35c-0.767,0.033-1.517-0.167-2.25-0.6V61c0.066,0.033,0.133,0.083,0.2,0.15   c0.034,0,0.05,0.017,0.05,0.05c0.566,0.466,1.167,0.7,1.8,0.7c1.1-0.066,2-0.4,2.7-1c0.933-0.833,2.033-1.25,3.3-1.25   c0.967-0.1,2.184,0.517,3.65,1.85c1.1,0.967,2.3,1.45,3.6,1.45c1.034-0.034,2.117-0.517,3.25-1.45   c1.367-1.167,2.583-1.733,3.65-1.7c1.134-0.034,2.45,0.5,3.95,1.6c0.867,0.6,1.7,0.983,2.5,1.15c0.2,0.033,0.383,0.15,0.55,0.35   c0.1,0.167,0.134,0.367,0.1,0.6c-0.033,0.2-0.15,0.35-0.35,0.45c-0.167,0.167-0.35,0.216-0.55,0.15c-1-0.2-2.066-0.7-3.2-1.5   c-1.167-0.8-2.167-1.2-3-1.2c-0.733,0.034-1.633,0.483-2.7,1.35c-1.434,1.167-2.817,1.75-4.15,1.75   c-1.733,0.033-3.317-0.6-4.75-1.9c-1.034-0.9-1.867-1.367-2.5-1.4c-0.867,0-1.633,0.3-2.3,0.9c-0.966,0.833-2.216,1.283-3.75,1.35   c-0.7,0-1.383-0.167-2.05-0.5v4.7c0.066,0.034,0.133,0.067,0.2,0.1c0.034,0,0.05,0.017,0.05,0.05c0.566,0.466,1.167,0.7,1.8,0.7   c1.1,0,2-0.3,2.7-0.9c0.933-0.9,2.033-1.35,3.3-1.35c0.967-0.066,2.184,0.567,3.65,1.9c1.1,0.967,2.3,1.45,3.6,1.45   c1.034-0.033,2.117-0.5,3.25-1.4c1.367-1.2,2.583-1.767,3.65-1.7c1.134-0.066,2.45,0.45,3.95,1.55c0.867,0.6,1.7,0.983,2.5,1.15   c0.2,0.033,0.383,0.15,0.55,0.35c0.1,0.167,0.134,0.35,0.1,0.55c-0.033,0.233-0.15,0.4-0.35,0.5c-0.167,0.133-0.35,0.183-0.55,0.15   c-1-0.167-2.066-0.65-3.2-1.45c-1.167-0.833-2.167-1.25-3-1.25c-0.733,0.033-1.633,0.466-2.7,1.3c-1.434,1.2-2.817,1.8-4.15,1.8   c-1.733,0.034-3.317-0.583-4.75-1.85c-1.034-0.967-1.867-1.467-2.5-1.5c-0.867,0-1.633,0.3-2.3,0.9   c-0.966,0.9-2.216,1.35-3.75,1.35c-0.733,0.033-1.433-0.117-2.1-0.45c-0.167,2.233-0.733,4.1-1.7,5.6   c-1.833,3.033-5.133,4.583-9.9,4.65h-30.65c-4.966,0-8.4-1.55-10.3-4.65c-1.167-1.9-1.75-4.367-1.75-7.4V48.4h-5.35   c-0.167,0-0.333-0.033-0.5-0.1c-0.133-0.1-0.217-0.233-0.25-0.4c-0.066-0.167-0.083-0.316-0.05-0.45c0.066-0.2,0.15-0.333,0.25-0.4   l32.75-26.7c0.167-0.133,0.333-0.2,0.5-0.2c0.2,0,0.383,0.067,0.55,0.2l10.1,8.25v-2c0-0.2,0.067-0.367,0.2-0.5   c0.2-0.2,0.4-0.3,0.6-0.3h11.55C61.742,25.8,61.925,25.9,62.058,26.1z"></path></g></svg>