<svg xmlns="http://www.w3.org/2000/svg" xmlns:xlink="http://www.w3.org/1999/xlink" version="1.1" x="0px" y="0px" viewBox="0 0 58 58" style="enable-background:new 0 0 58 58;" xml:space="preserve"><g><path d="M49.1,44.1h-1.1l-7.7-8c-1.6-1.9-3.9-2.9-6.3-2.9H14.3c-1.2,0-2.3,0.7-2.7,1.8l-4,9.4c-1.1,0.5-1.9,1.6-1.9,2.9v5.4   c0,0.6,0.5,1.1,1.1,1.1h2.4c0.5,2.4,2.7,4.3,5.2,4.3s4.8-1.8,5.2-4.3h15.6c0.5,2.4,2.7,4.3,5.2,4.3s4.8-1.8,5.2-4.3h5.6   c0.6,0,1.1-0.5,1.1-1.1v-5.4C52.4,45.5,50.9,44.1,49.1,44.1z M38.8,37.4l6.3,6.6H26.9v-8.8h7.2C35.9,35.2,37.6,36,38.8,37.4z    M13.5,35.7c0.1-0.3,0.4-0.5,0.7-0.5h10.4v8.8H10L13.5,35.7z M14.3,55.9c-1.8,0-3.2-1.4-3.2-3.2c0-1.8,1.4-3.2,3.2-3.2   c1.8,0,3.2,1.4,3.2,3.2C17.6,54.4,16.1,55.9,14.3,55.9z M40.4,55.9c-1.8,0-3.2-1.4-3.2-3.2c0-1.8,1.4-3.2,3.2-3.2   c1.8,0,3.2,1.4,3.2,3.2C43.7,54.4,42.2,55.9,40.4,55.9z M50.3,51.6h-4.6c-0.5-2.5-2.8-4.3-5.2-4.3c-2.4,0-4.7,1.8-5.2,4.3H19.6   c-0.5-2.5-2.8-4.3-5.2-4.3c-2.5,0-4.7,1.8-5.2,4.3H7.7v-4.4c0-0.6,0.5-1.1,1.1-1.1c9.5,0,20.2,0,40.3,0c0.6,0,1.1,0.5,1.1,1.1V51.6   z"></path><path d="M28.8,31c8.5,0,15.5-7,15.5-15.5C44.3,7,37.4,0,28.8,0c-8.5,0-15.5,7-15.5,15.5C13.3,24,20.3,31,28.8,31z M25.8,16.2V9.4   h4.3c1.2,0,2.1,0.2,2.8,0.5l-6.3,6.3H25.8z M34.7,12.8c0,2.8-2.4,3.4-5.1,3.4l4.8-4.8C34.6,11.9,34.7,12.3,34.7,12.8z M28.8,28.9   c-3.3,0-6.3-1.2-8.7-3.2l3.4-3.4v1.4c0,0.6,0.5,1.1,1.1,1.1c0.6,0,1.1-0.5,1.1-1.1v-3.6l1.7-1.7c2.4,0,9.5,0.8,9.5-5.5   c0-1.1-0.3-2.1-0.9-3.1L39,6.8c2,2.3,3.2,5.4,3.2,8.7C42.2,22.9,36.2,28.9,28.8,28.9z M28.8,2.1c3.3,0,6.3,1.2,8.7,3.2l-3,3   c-1.3-0.8-2.6-1-4.2-1h-5.7c-0.3,0-0.6,0.1-0.8,0.3c-0.2,0.2-0.3,0.5-0.3,0.8v10.9l-4.9,4.9c-2-2.3-3.2-5.4-3.2-8.7   C15.5,8.1,21.5,2.1,28.8,2.1z"></path></g></svg>