<svg xmlns:xlink="http://www.w3.org/1999/xlink" xmlns="http://www.w3.org/2000/svg" stroke-width="0.501" stroke-linejoin="bevel" fill-rule="evenodd" version="1.1" overflow="visible" viewBox="0 0 96 96" x="0px" y="0px"><g fill="none" stroke="black" font-family="Times New Roman" font-size="16" transform="scale(1 -1)"><g transform="translate(0 -96)"><g><path d="M 21.432,11.926 L 21.432,39.64 L 18.311,36.52 L 13.276,41.554 L 48.221,76.499 L 60.155,64.565 L 60.155,67.954 L 71.048,67.954 L 71.048,53.673 L 83.168,41.553 L 78.133,36.518 L 75.019,39.632 L 75.019,11.926 L 21.432,11.926 Z M 38.18,21.438 L 38.18,26.357 L 36.498,26.127 L 36.846,23.162 C 36.918,22.545 36.476,21.986 35.86,21.913 C 35.243,21.841 34.684,22.283 34.611,22.899 L 34.134,26.961 C 34.063,27.57 34.492,28.124 35.099,28.207 L 39.135,28.759 C 39.139,28.759 39.143,28.76 39.148,28.76 C 39.226,28.776 39.307,28.785 39.39,28.785 L 43.115,28.785 C 43.173,28.785 43.231,28.78 43.288,28.772 L 45.563,29.944 L 43.717,33.901 C 43.454,34.464 43.698,35.134 44.261,35.396 C 44.824,35.659 45.494,35.415 45.756,34.852 L 48.059,29.915 C 48.314,29.368 48.092,28.716 47.555,28.439 L 44.325,26.774 L 44.325,21.438 C 44.325,21.323 44.308,21.212 44.278,21.107 L 56.053,21.107 C 56.037,21.185 56.029,21.266 56.029,21.349 L 56.029,28.183 L 53.845,27.215 C 53.293,26.97 52.645,27.206 52.379,27.748 L 49.98,32.639 C 49.707,33.197 49.938,33.871 50.495,34.145 C 51.053,34.418 51.727,34.187 52.001,33.63 L 53.923,29.711 L 56.658,30.923 C 56.66,30.923 56.662,30.924 56.664,30.925 C 56.835,31.018 57.031,31.071 57.239,31.071 L 60.966,31.071 C 61.633,31.071 62.176,30.529 62.176,29.862 L 62.176,21.349 C 62.176,21.266 62.167,21.185 62.151,21.107 L 64.264,21.107 L 64.264,44.028 L 32.179,44.028 L 32.179,21.107 L 38.226,21.107 C 38.196,21.212 38.18,21.323 38.18,21.438 Z M 36.622,32.565 C 36.622,34.141 37.902,35.421 39.478,35.421 C 41.054,35.421 42.334,34.141 42.334,32.565 C 42.334,30.989 41.054,29.709 39.478,29.709 C 37.902,29.709 36.622,30.989 36.622,32.565 Z M 57.111,35.513 C 57.111,37.089 58.391,38.369 59.967,38.369 C 61.543,38.369 62.823,37.089 62.823,35.513 C 62.823,33.937 61.543,32.657 59.967,32.657 C 58.391,32.657 57.111,33.937 57.111,35.513 Z M 24.869,61.505 L 22.068,62.582 C 23.204,65.537 25.438,67.618 28.413,68.977 L 29.66,66.248 C 27.252,65.148 25.671,63.594 24.869,61.505 Z M 17.727,61.826 L 14.926,62.903 C 17.153,68.695 21.53,72.817 27.532,75.559 L 28.779,72.83 C 23.341,70.346 19.618,66.744 17.727,61.826 Z M 10.977,63.145 L 8.176,64.222 C 11.251,72.219 17.295,77.932 25.654,81.749 L 26.901,79.02 C 19.106,75.461 13.716,70.268 10.977,63.145 Z M 75.536,79.542 L 77.567,81.749 C 82.817,76.92 85.921,71.224 86.265,64.548 L 83.268,64.393 C 82.972,70.142 80.327,75.134 75.536,79.542 Z M 72.601,72.796 L 74.632,75.003 C 77.226,72.617 78.805,69.751 78.98,66.364 L 75.983,66.209 C 75.856,68.669 74.731,70.836 72.601,72.796 Z" stroke="none" fill="#000000" stroke-width="0.5" fill-rule="evenodd" marker-start="none" marker-end="none" stroke-miterlimit="79.8403193612775"></path></g></g></g></svg>