<svg xmlns="http://www.w3.org/2000/svg" xmlns:xlink="http://www.w3.org/1999/xlink" viewBox="0 0 100 100" version="1.1" x="0px" y="0px"><title>Streetlight Copy 13</title><desc>Created with Sketch.</desc><g stroke="none" stroke-width="1" fill="none" fill-rule="evenodd"><g fill="#000000"><path d="M93,6 L76,6 L76,4 L85.899,4 L93,4 L93,6 Z M52,21 L54,21 L54,17 L52,17 L52,21 Z M46,21 L48,21 L48,17 L46,17 L46,21 Z M24,6 L7,6 L7,4 L13.882,4 L24,4 L24,6 Z M94.887,0 L85.899,0 L73.895,0 L67,0 C60,0 54.181,5.778 53.916,13 L53.891,13 L52,13 L52,1.998 C52,0.895 51.104,0 50,0 C48.888,0 48,0.895 48,1.998 L48,13 L45.891,13 L45.865,13 C45.601,5.778 40,0 32,0 L25.887,0 L13.882,0 L4.895,0 C3.787,0 3,0.887 3,2 L3,8 C3,9.104 3.78,10 4.895,10 L25.887,10 C26.993,10 28,9.113 28,8 L28,4 L32,4 C38,4 42,8.253 42,13.5 L42,28 C42,29.104 42.888,30 44,30 C45.104,30 46,29.11 46,28 L46,25 L48,25 L48,98.002 C48,99.105 48.896,100 50,100 C51.112,100 52,99.105 52,98.002 L52,25 L54,25 L54,28 C54,29.11 54.896,30 56,30 C57.112,30 58,29.104 58,28 L58,13.5 C58,8.253 62,4 67,4 L72,4 L72,8 C72,9.113 72.787,10 73.895,10 L94.887,10 C96.001,10 97,9.104 97,8 L97,2 C97,0.887 95.993,0 94.887,0 L94.887,0 Z"></path></g></g></svg>