<svg xmlns:dc="http://purl.org/dc/elements/1.1/" xmlns:cc="http://creativecommons.org/ns#" xmlns:rdf="http://www.w3.org/1999/02/22-rdf-syntax-ns#" xmlns:svg="http://www.w3.org/2000/svg" xmlns="http://www.w3.org/2000/svg" xmlns:sodipodi="http://sodipodi.sourceforge.net/DTD/sodipodi-0.dtd" xmlns:inkscape="http://www.inkscape.org/namespaces/inkscape" viewBox="0 0 100 100" version="1.1" x="0px" y="0px"><g transform="translate(0,-952.36216)"><path style="color:#000000;clip-rule:nonzero;display:inline;overflow:visible;visibility:visible;opacity:1;isolation:auto;mix-blend-mode:normal;color-interpolation:sRGB;color-interpolation-filters:linearRGB;solid-color:#000000;solid-opacity:1;fill:#000000;fill-opacity:1;fill-rule:nonzero;stroke:#ffffff;stroke-width:0.01372483;stroke-linecap:round;stroke-linejoin:round;stroke-miterlimit:4;stroke-dasharray:none;stroke-dashoffset:288.50640869;stroke-opacity:1;color-rendering:auto;image-rendering:auto;shape-rendering:auto;text-rendering:auto;enable-background:accumulate" d="m 49.318799,957.37048 a 2.2097258,2.2097258 0 0 0 -1.332127,4.02477 c 2.466576,1.7599 3.355991,3.65417 3.175156,5.25849 -0.183041,1.62387 -1.733687,3.82921 -3.614152,6.16866 -1.890392,2.3518 -4.167688,4.96025 -4.560265,8.44311 -0.403867,3.58299 1.663367,6.96929 4.999261,9.34949 a 2.2097258,2.2097258 0 1 0 2.565858,-3.59712 c -2.466579,-1.75994 -3.354097,-3.65418 -3.173262,-5.2585 0.183036,-1.62386 1.7318,-3.82921 3.612259,-6.16865 1.890405,-2.35182 4.167683,-4.95838 4.560265,-8.44122 0.403867,-3.58299 -1.663341,-6.97121 -4.999262,-9.35139 a 2.2097258,2.2097258 0 0 0 -1.233731,-0.42764 z m 13.266396,0 a 2.2097258,2.2097258 0 0 0 -1.334019,4.02477 c 2.46658,1.75993 3.355991,3.65417 3.175156,5.25849 -0.183037,1.62386 -1.733693,3.8292 -3.614152,6.16866 -1.890406,2.35181 -4.16579,4.96025 -4.558373,8.44311 -0.403867,3.58299 1.661451,6.96931 4.997369,9.34949 a 2.2097865,2.2097865 0 1 0 2.567751,-3.59712 c -2.466576,-1.7599 -3.35599,-3.65418 -3.175155,-5.2585 0.18304,-1.62387 1.733686,-3.82922 3.614152,-6.16865 1.890392,-2.35181 4.165795,-4.95837 4.558372,-8.44122 0.403867,-3.58299 -1.661475,-6.97118 -4.997369,-9.35139 a 2.2097258,2.2097258 0 0 0 -1.233732,-0.42764 z m 13.264505,0 a 2.2097258,2.2097258 0 0 0 -1.332127,4.02477 c 2.466576,1.7599 3.354098,3.65417 3.173263,5.25849 -0.183041,1.62387 -1.731794,3.82921 -3.612259,6.16866 -1.890393,2.3518 -4.167689,4.96025 -4.560266,8.44311 -0.403867,3.58299 1.663368,6.96929 4.999262,9.34949 a 2.2097258,2.2097258 0 1 0 2.565858,-3.59712 c -2.46658,-1.75994 -3.354098,-3.65418 -3.173262,-5.2585 0.183036,-1.62386 1.731799,-3.82921 3.612259,-6.16865 1.890405,-2.35182 4.167682,-4.95838 4.560264,-8.44122 0.403868,-3.58299 -1.663341,-6.97121 -4.999261,-9.35139 A 2.2097258,2.2097258 0 0 0 75.8497,957.37048 Z m -57.054398,2.80617 c -3.280519,0 -5.918883,2.64222 -5.918883,5.92267 l 0,0.3898 0,39.41128 0,26.4722 0,8.6702 0,0.3898 0,5.9227 5.918883,0 11.777215,0 7.163967,0 6.910409,0 5.949158,0 0,-7.9152 c 0.131084,-6.3868 1.100396,-9.639 8.473389,-9.639 l 3.672811,0 c 13.34968,0 24.120895,-10.6176 24.381331,-23.9026 l -53.455384,0 0,-39.40938 0,-0.3898 c 0,-3.28045 -2.640257,-5.92267 -5.920775,-5.92267 l -8.952121,0 z m 25.073886,35.13864 c -3.280519,0 -5.918883,2.64234 -5.918883,5.92261 l 0,0.3898 25.726706,0 11.205762,0 12.237025,0 0,-0.3898 c 0,-3.28027 -2.644072,-5.92261 -5.924559,-5.92261 l -6.312466,0 -11.205762,0 -19.807823,0 z"></path></g></svg>