<svg xmlns="http://www.w3.org/2000/svg" xmlns:xlink="http://www.w3.org/1999/xlink" version="1.1" x="0px" y="0px" viewBox="0 0 100 100" enable-background="new 0 0 100 100" xml:space="preserve"><path fill-rule="evenodd" clip-rule="evenodd" d="M32.826,79.807c-2.233-4.813-5.319-9.07-6.633-14.504  c-0.004,0.013-0.009,0.023-0.011,0.038c-0.003-0.015-0.007-0.025-0.011-0.038c-1.314,5.434-4.4,9.69-6.633,14.504  c-0.991,2.133-2.287,3.902-2.062,6.975c0.301,4.126,2.988,7.002,6.992,7.995c-0.002,0.011-0.005,0.019-0.009,0.025  c0.571,0.093,1.145,0.155,1.723,0.198c0.577-0.043,1.151-0.105,1.721-0.198c-0.002-0.007-0.008-0.015-0.008-0.025  c4.003-0.993,6.69-3.869,6.993-7.995C35.111,83.709,33.814,81.939,32.826,79.807z M21.134,91.242  c-1.27-1.184-2.059-2.802-2.203-4.762c-0.187-2.558,0.894-4.031,1.717-5.807c0.387-0.836,0.808-1.654,1.239-2.465  c-0.29,1.073-0.727,2.1-1.066,3.159c-0.408,1.266-0.594,2.611-0.671,3.934C20.027,87.367,20.269,89.407,21.134,91.242z"></path><path fill-rule="evenodd" clip-rule="evenodd" d="M81.228,33.833h-4.622c-0.978,0-1.773,0.793-1.773,1.774v1.866  c-4.813-0.111-7.932,4.144-12.95,3.078c-1.243-0.264-3.031-1.396-4.074-2.97c-0.549-0.985-0.921-2.095-1.157-3.25  c4.414-2.762,3.291-10.727-3.047-10.735v-0.002H52.48c-0.807-2.47,0.41-5.253,0.02-8.223c4.225-3.248,16.319,4.278,16.298-3.851  c-0.009-2.096-1.765-3.494-3.26-3.851c-3.57-0.857-6.495,2.462-10.667,1.479C52.379,8.562,51.512,5.043,48.649,5  c-0.069,0-0.131,0.008-0.195,0.01C48.387,5.009,48.327,5,48.256,5c-2.862,0.043-3.729,3.562-6.223,4.147  c-4.171,0.983-7.096-2.336-10.665-1.479c-1.493,0.357-3.253,1.755-3.258,3.851c-0.023,8.129,12.071,0.604,16.295,3.851  c-0.39,2.97,0.827,5.753,0.022,8.223h-1.123v0.002c-6.34,0.008-7.463,7.973-3.047,10.735c-0.538,2.614-1.758,4.996-4.147,6.22  c-4.049,2.077-9.558,2.078-13.944,6.376c-0.23,0.214-0.449,0.451-0.66,0.696c-0.047,0.054-0.086,0.107-0.132,0.162  c-0.104,0.125-0.21,0.248-0.309,0.379c-0.459,0.589-0.823,1.173-1.113,1.747c-1.564,2.84-2.301,5.996-2.316,6.087  c-0.086,0.509-0.322,1.061-0.493,1.738c-0.042,0.169-0.028,0.302-0.004,0.412c0.001,0.01,0.002,0.021,0.005,0.03  c0.004,0.021,0.006,0.047,0.012,0.066c0.016,0.055,0.043,0.091,0.069,0.132c0.01,0.016,0.017,0.04,0.028,0.055  c0.049,0.057,0.108,0.098,0.176,0.126c0.017,0.006,0.037,0.009,0.055,0.014c0.056,0.017,0.113,0.032,0.175,0.04  c0.039,0.005,0.08,0.008,0.121,0.011c0.062,0.005,0.122,0.01,0.186,0.014c0.059,0.004,0.117,0.012,0.175,0.018  c0.032,0.004,0.064,0.01,0.095,0.018c0.054,0.01,0.103,0.03,0.152,0.051c0.023,0.011,0.047,0.019,0.069,0.031  c0.065,0.04,0.124,0.091,0.166,0.167c0.187,0.327,0.102,0.978-0.681,0.954c-0.01,0-0.01,0.003-0.019,0.003h-0.349  c-0.32,0-0.579,0.26-0.579,0.579c0,0.318,0.259,0.579,0.579,0.579h0.479c0.231,0.022,0.449,0.071,0.569,0.282  c0.184,0.324,0.099,0.96-0.661,0.949h-0.241c-0.4,0-0.726,0.327-0.726,0.729c0,0.077,0.018,0.149,0.045,0.219  c0.017,0.057,0.042,0.105,0.074,0.154l0,0l0,0c0.128,0.206,0.346,0.353,0.607,0.353h7.288h1.596h8.036  c0.4,0,0.725-0.327,0.725-0.726c0-0.401-0.325-0.729-0.725-0.729H34.4c-0.76,0.011-0.845-0.625-0.661-0.949  c0.12-0.211,0.337-0.26,0.568-0.282h0.48c0.32,0,0.579-0.261,0.579-0.579c0-0.319-0.258-0.579-0.579-0.579h-0.349  c-0.009,0-0.009-0.003-0.019-0.003c-0.782,0.023-0.867-0.627-0.681-0.954c0.32-0.563,1.356,0.031,1.486-0.755  c0.018-0.112,0.047-0.259-0.005-0.429c-2.547-8.235,6.268-4.827,10.37-4.741c6.002,0.125,9.948-1.895,15.107-2.371  c1.255-0.115,2.376-0.083,3.417,0.031c0.001,0,0.002,0,0.004,0c3.78,0.361,6.64,3.347,10.715,3.198v2.092  c0,0.981,0.796,1.774,1.773,1.774h4.622c0.981,0,1.777-0.793,1.777-1.774V35.607C83.005,34.626,82.209,33.833,81.228,33.833z"></path></svg>